<svg width="30" height="33" viewBox="0 0 30 33" fill="none" xmlns="http://www.w3.org/2000/svg">
<path d="M28.3713 7.47391L15.9584 0.282424C15.3063 -0.0941414 14.5026 -0.0941414 13.8505 0.282424L1.44225 7.47391C0.790152 7.85047 0.390625 8.54391 0.390625 9.29704V23.703C0.390625 24.4515 0.790152 25.1449 1.44225 25.5215L13.8505 32.7176C14.5026 33.0941 15.3063 33.0941 15.9584 32.7176L28.3667 25.5215C29.0142 25.1449 29.4137 24.4515 29.4137 23.703V9.29704C29.4183 8.54391 29.0188 7.85047 28.3713 7.47391ZM13.2673 30.8348L2.06221 24.4194C1.85096 24.2954 1.71779 24.0703 1.71779 23.8224V9.88485C1.71779 9.35674 2.29641 9.02609 2.75105 9.29244L13.7633 15.7905C13.9699 15.9145 14.0985 16.1349 14.1031 16.3691L14.2914 30.2286C14.3006 30.7613 13.7266 31.1011 13.2673 30.8348ZM27.6595 24.2678L16.5829 30.8302C16.1237 31.1011 15.5497 30.7705 15.5497 30.2423V27.5651C15.5497 27.3171 15.6829 27.0921 15.8941 26.9727L27.1635 20.4884C27.6227 20.2266 27.9442 20.5619 27.9396 21.09L27.9993 23.6846C27.9947 23.928 27.8661 24.1484 27.6595 24.2678ZM27.6595 18.6698L16.5829 25.2322C16.1237 25.5031 15.5497 25.1725 15.5497 24.6444V21.9671C15.5497 21.7191 15.6829 21.4941 15.8941 21.3747L27.1635 14.8904C27.6227 14.6287 27.9442 14.9639 27.9396 15.492L27.9993 18.0866C27.9947 18.3254 27.8661 18.5504 27.6595 18.6698ZM27.6595 13.0719L16.5829 19.6296C16.1237 19.9006 15.5497 19.5699 15.5497 19.0418V16.3645C15.5497 16.1211 15.6829 15.8915 15.8941 15.7721L27.1635 9.28785C27.6227 9.02609 27.9442 9.36133 27.9396 9.88944L27.9993 12.4887C27.9947 12.7275 27.8661 12.9479 27.6595 13.0719Z" fill="white"/>
<path d="M22.8286 14.4311L16.6703 17.9166C16.5693 17.9718 16.4453 17.9029 16.4453 17.7835V17.0579C16.4453 17.0028 16.4729 16.9523 16.5234 16.9247L22.6816 13.4392C22.7826 13.3841 22.9066 13.453 22.9066 13.5724V14.2979C22.902 14.353 22.8745 14.4036 22.8286 14.4311Z" fill="#FA7532"/>
<path d="M24.8811 13.3242L24.4173 13.5676C24.2657 13.6503 24.082 13.54 24.082 13.3655V12.8099C24.082 12.7272 24.128 12.6491 24.2014 12.6078L24.6652 12.3644C24.8168 12.2818 25.0005 12.392 25.0005 12.5665V13.1221C25.0051 13.2094 24.9546 13.2875 24.8811 13.3242Z" fill="white"/>
<path d="M6.30062 16.7964L4.04582 15.5657C3.94479 15.5105 3.8208 15.5794 3.8208 15.6988V16.4244C3.8208 16.4795 3.84835 16.53 3.89887 16.5576L6.15367 17.7883C6.2547 17.8434 6.37869 17.7745 6.37869 17.6551V16.9296C6.3741 16.8744 6.34655 16.8239 6.30062 16.7964Z" fill="white"/>
<path d="M6.30062 18.6836L4.04582 17.4529C3.94479 17.3978 3.8208 17.4666 3.8208 17.586V18.3116C3.8208 18.3667 3.84835 18.4172 3.89887 18.4448L6.15367 19.6755C6.2547 19.7306 6.37869 19.6617 6.37869 19.5423V18.8168C6.3741 18.7617 6.34655 18.7111 6.30062 18.6836Z" fill="white"/>
<path d="M6.30062 20.5757L4.04582 19.345C3.94479 19.2898 3.8208 19.3587 3.8208 19.4781V20.2037C3.8208 20.2588 3.84835 20.3093 3.89887 20.3369L6.15367 21.5676C6.2547 21.6227 6.37869 21.5538 6.37869 21.4344V20.7089C6.3741 20.6492 6.34655 20.5986 6.30062 20.5757Z" fill="white"/>
<path d="M6.30062 22.4629L4.04582 21.2322C3.94479 21.1771 3.8208 21.2459 3.8208 21.3653V22.0909C3.8208 22.146 3.84835 22.1965 3.89887 22.2241L6.15367 23.4548C6.2547 23.5099 6.37869 23.441 6.37869 23.3216V22.5915C6.3741 22.5364 6.34655 22.4858 6.30062 22.4629Z" fill="white"/>
<path d="M6.30062 24.3506L4.04582 23.1199C3.94479 23.0647 3.8208 23.1336 3.8208 23.253V23.9786C3.8208 24.0337 3.84835 24.0842 3.89887 24.1118L6.15367 25.3425C6.2547 25.3976 6.37869 25.3287 6.37869 25.2093V24.4838C6.3741 24.4286 6.34655 24.3781 6.30062 24.3506Z" fill="white"/>
<path d="M11.2879 19.6523L9.03313 18.4216C8.9321 18.3665 8.80811 18.4354 8.80811 18.5548V19.2804C8.80811 19.3355 8.83566 19.386 8.88617 19.4135L11.141 20.6443C11.242 20.6994 11.366 20.6305 11.366 20.5111V19.7855C11.366 19.7304 11.3338 19.6799 11.2879 19.6523Z" fill="white"/>
<path d="M11.2879 21.54L9.03313 20.3093C8.9321 20.2542 8.80811 20.3231 8.80811 20.4425V21.1681C8.80811 21.2232 8.83566 21.2737 8.88617 21.3012L11.141 22.532C11.242 22.5871 11.366 22.5182 11.366 22.3988V21.6732C11.366 21.6181 11.3338 21.5676 11.2879 21.54Z" fill="white"/>
<path d="M11.2879 23.4272L9.03313 22.1965C8.9321 22.1414 8.80811 22.2103 8.80811 22.3297V23.0553C8.80811 23.1104 8.83566 23.1609 8.88617 23.1884L11.141 24.4192C11.242 24.4743 11.366 24.4054 11.366 24.286V23.5604C11.366 23.5053 11.3338 23.4548 11.2879 23.4272Z" fill="white"/>
<path d="M11.2879 25.3149L9.03313 24.0842C8.9321 24.0291 8.80811 24.098 8.80811 24.2174V24.943C8.80811 24.9981 8.83566 25.0486 8.88617 25.0761L11.141 26.3069C11.242 26.362 11.366 26.2931 11.366 26.1737V25.4481C11.366 25.393 11.3338 25.3425 11.2879 25.3149Z" fill="white"/>
<path d="M11.2879 27.2021L9.03313 25.9714C8.9321 25.9163 8.80811 25.9852 8.80811 26.1046V26.8302C8.80811 26.8853 8.83566 26.9358 8.88617 26.9633L11.141 28.1941C11.242 28.2492 11.366 28.1803 11.366 28.0609V27.3353C11.366 27.2802 11.3338 27.2297 11.2879 27.2021Z" fill="white"/>
<path d="M22.8286 20.0293L16.6703 23.5148C16.5693 23.5699 16.4453 23.501 16.4453 23.3816V22.656C16.4453 22.6009 16.4729 22.5504 16.5234 22.5229L22.6816 19.0373C22.7826 18.9822 22.9066 19.0511 22.9066 19.1705V19.8961C22.902 19.9512 22.8745 20.0017 22.8286 20.0293Z" fill="white"/>
<path d="M24.8811 18.9223L24.4173 19.1657C24.2657 19.2484 24.082 19.1382 24.082 18.9637V18.408C24.082 18.3254 24.128 18.2473 24.2014 18.206L24.6652 17.9626C24.8168 17.8799 25.0005 17.9901 25.0005 18.1646V18.7203C25.0051 18.8075 24.9546 18.881 24.8811 18.9223Z" fill="#FA7532"/>
<path d="M22.8286 25.8427L16.6703 29.3283C16.5693 29.3834 16.4453 29.3145 16.4453 29.1951V28.4695C16.4453 28.4144 16.4729 28.3639 16.5234 28.3363L22.6816 24.8508C22.7826 24.7957 22.9066 24.8646 22.9066 24.984V25.7096C22.902 25.7647 22.8745 25.8152 22.8286 25.8427Z" fill="#FA7532"/>
<path d="M24.8811 24.7363L24.4173 24.9797C24.2657 25.0624 24.082 24.9521 24.082 24.7776V24.222C24.082 24.1393 24.128 24.0613 24.2014 24.0199L24.6652 23.7765C24.8168 23.6939 25.0005 23.8041 25.0005 23.9786V24.5343C25.0051 24.6215 24.9546 24.6996 24.8811 24.7363Z" fill="white"/>
</svg>
